<?xml version="1.0" standalone="no"?>
<!DOCTYPE svg PUBLIC "-//W3C//DTD SVG 20010904//EN"
 "http://www.w3.org/TR/2001/REC-SVG-20010904/DTD/svg10.dtd">
<svg version="1.0" xmlns="http://www.w3.org/2000/svg"
 width="500.000000pt" height="500.000000pt" viewBox="0 0 500.000000 500.000000"
 preserveAspectRatio="xMidYMid meet">

<g transform="translate(0.000000,500.000000) scale(0.100000,-0.100000)"
fill="#000000" stroke="none">
<path d="M0 2500 l0 -2500 2500 0 2500 0 0 2500 0 2500 -2500 0 -2500 0 0
-2500z m1952 916 c182 -35 341 -119 476 -250 123 -119 203 -255 254 -433 19
-66 23 -102 23 -233 0 -131 -4 -167 -23 -233 -51 -178 -131 -314 -254 -433
-191 -185 -420 -273 -683 -261 -420 19 -758 303 -862 725 -23 92 -23 312 0
404 69 282 243 505 487 628 81 41 187 76 267 90 79 13 236 11 315 -4z m1410
-60 c162 -68 293 -302 343 -611 19 -117 19 -373 0 -490 -51 -316 -185 -548
-355 -616 -130 -51 -296 33 -393 199 -114 196 -164 429 -154 722 8 229 42 381
124 546 108 218 278 315 435 250z m675 -132 c27 -47 59 -177 80 -328 12 -81
16 -189 16 -396 0 -300 -10 -415 -53 -596 -22 -95 -52 -159 -86 -181 -64 -42
-130 120 -166 407 -17 139 -17 601 0 740 28 218 70 362 120 401 22 17 28 18
46 6 12 -8 31 -32 43 -53z"/>
</g>
</svg>
