<?xml version="1.0" standalone="no"?>
<!DOCTYPE svg PUBLIC "-//W3C//DTD SVG 20010904//EN"
 "http://www.w3.org/TR/2001/REC-SVG-20010904/DTD/svg10.dtd">
<svg version="1.0" xmlns="http://www.w3.org/2000/svg" width="1024.000000pt" height="1024.000000pt" viewBox="0 0 1024.000000 1024.000000" preserveAspectRatio="xMidYMid meet">
<g transform="translate(0.000000,1024.000000) scale(0.100000,-0.100000)"
fill="#000000" stroke="none">
<path d="M1490 7675 c0 -3 506 -511 1124 -1129 l1124 -1123 1128 1128 1129 1129 -2253 0 c-1238 0 -2252 -2 -2252 -5z"/>
<path d="M5362 6377 l-1262 -1262 1264 -1264 1264 -1264 1261 1262 c693 693 1261 1265 1261 1271 0 11 -2506 2520 -2518 2520 -4 0 -575 -568 -1270 -1263z"/>
<path d="M2608 3689 c-615 -615 -1118 -1121 -1118 -1124 0 -3 1011 -5 2247 -5 l2248 0 -1125 1125 c-619 619 -1127 1125 -1130 1124 -3 0 -508 -504 -1122 -1120z"/>
</g>
</svg>
