<?xml version="1.0" standalone="no"?>
<!DOCTYPE svg PUBLIC "-//W3C//DTD SVG 20010904//EN"
 "http://www.w3.org/TR/2001/REC-SVG-20010904/DTD/svg10.dtd">
<svg version="1.0" xmlns="http://www.w3.org/2000/svg"
 width="180.000000pt" height="180.000000pt" viewBox="0 0 180.000000 180.000000"
 preserveAspectRatio="xMidYMid meet">
<metadata>
Created by potrace 1.14, written by Peter Selinger 2001-2017
</metadata>
<g transform="translate(0.000000,180.000000) scale(0.100000,-0.100000)"
fill="#000000" stroke="none">
<path d="M770 1792 c-89 -13 -300 -86 -300 -103 0 -5 -5 -9 -11 -9 -45 0 -229
-165 -297 -266 -39 -56 -110 -196 -116 -226 -1 -7 -8 -31 -14 -53 -23 -83 -26
-113 -26 -235 1 -120 5 -178 17 -210 8 -21 31 -94 33 -102 1 -5 3 -11 4 -15 1
-5 2 -11 1 -16 0 -4 4 -7 11 -7 6 0 9 -3 5 -6 -7 -8 46 -106 96 -174 78 -108
215 -222 337 -282 38 -19 166 -62 215 -74 17 -3 86 -8 155 -9 132 -3 198 6
320 47 62 21 79 30 168 79 127 72 293 256 342 379 8 19 17 37 20 40 6 5 30 79
29 90 0 3 4 17 10 33 14 37 20 69 27 153 l7 72 -49 3 c-86 7 -177 -4 -179 -21
-1 -8 -5 -41 -9 -73 -7 -62 -45 -190 -58 -195 -4 -2 -8 -9 -8 -16 0 -23 -81
-130 -140 -186 -67 -63 -144 -112 -221 -140 -109 -40 -249 -55 -349 -36 -14 2
-25 5 -25 6 0 1 -9 3 -20 5 -42 8 -125 37 -131 46 -3 5 -10 7 -15 4 -5 -4 -9
-3 -9 2 0 4 -12 14 -27 20 -48 21 -141 101 -185 157 -61 77 -111 180 -136 276
-2 8 -4 27 -5 43 -1 15 -4 27 -7 27 -12 0 -1 184 14 235 2 6 6 24 11 40 29
113 137 268 239 341 33 24 68 50 76 56 8 7 16 12 17 11 2 -1 23 6 48 17 57 24
115 40 174 47 25 2 55 6 66 7 18 3 20 12 23 114 l3 112 -53 -2 c-29 -1 -64 -4
-78 -6z"/>
<path d="M1370 1598 c-52 -27 -82 -65 -84 -107 -1 -17 -4 -31 -7 -31 -12 0 1
-60 18 -88 22 -35 49 -62 63 -62 5 0 10 -5 10 -11 0 -6 7 -9 15 -6 8 4 17 2
19 -2 8 -13 90 -5 122 12 74 39 107 128 76 207 -37 98 -137 136 -232 88z"/>
</g>
</svg>
