<?xml version="1.0" standalone="no"?>
<!DOCTYPE svg PUBLIC "-//W3C//DTD SVG 20010904//EN"
 "http://www.w3.org/TR/2001/REC-SVG-20010904/DTD/svg10.dtd">
<svg version="1.0" xmlns="http://www.w3.org/2000/svg"
 width="1024.000000pt" height="1024.000000pt" viewBox="0 0 1024.000000 1024.000000"
 preserveAspectRatio="xMidYMid meet">
<metadata>
Created by potrace 1.11, written by Peter Selinger 2001-2013
</metadata>
<g transform="translate(0.000000,1024.000000) scale(0.100000,-0.100000)"
fill="#000000" stroke="none">
<path d="M4847 10234 c-1 -1 -51 -5 -112 -8 -60 -4 -128 -10 -150 -12 -104
-13 -256 -33 -285 -39 -13 -3 -42 -7 -65 -10 -22 -3 -47 -8 -55 -10 -8 -2 -29
-7 -47 -10 -64 -11 -291 -65 -398 -96 -60 -17 -114 -32 -120 -33 -5 -2 -17 -6
-25 -9 -8 -3 -53 -18 -100 -33 -79 -25 -198 -68 -315 -115 -167 -67 -502 -235
-660 -330 -23 -13 -49 -28 -58 -34 -127 -73 -504 -344 -621 -446 -279 -242
-442 -406 -635 -634 -489 -577 -854 -1287 -1042 -2025 -22 -85 -41 -164 -43
-175 -17 -84 -56 -299 -61 -340 -4 -27 -8 -61 -10 -75 -2 -14 -6 -54 -10 -90
-4 -36 -8 -72 -10 -80 -19 -72 -27 -718 -12 -895 19 -216 30 -307 63 -497 112
-665 388 -1361 764 -1928 446 -674 1030 -1225 1720 -1625 154 -89 485 -251
645 -315 199 -80 583 -203 695 -224 14 -2 32 -7 40 -10 8 -3 26 -7 40 -10 14
-2 72 -14 130 -26 58 -12 116 -23 130 -25 46 -7 175 -26 200 -31 14 -2 57 -7
95 -10 39 -3 72 -8 75 -9 3 -2 57 -7 120 -11 216 -16 796 -9 899 11 9 1 47 6
84 10 37 3 76 8 85 10 9 1 37 6 62 9 25 3 56 8 70 10 14 3 41 7 60 10 73 11
240 46 356 75 383 94 704 213 1054 388 216 108 243 123 417 232 440 274 771
555 1159 981 164 182 437 561 564 785 13 22 36 63 52 90 38 67 177 344 210
421 115 264 232 600 279 804 6 25 13 54 15 65 3 11 7 31 10 45 3 14 9 39 14
55 5 17 11 44 14 60 2 17 9 55 16 85 6 30 13 71 16 90 3 19 9 60 14 90 5 30
12 78 15 105 3 28 7 59 9 70 2 11 7 56 11 100 3 44 8 94 10 111 2 16 7 112 10
212 l7 182 -79 0 c-409 2 -1197 0 -1199 -3 -2 -2 -6 -71 -9 -153 -3 -82 -7
-165 -9 -184 -3 -19 -8 -60 -11 -90 -4 -30 -8 -66 -10 -80 -2 -14 -7 -45 -10
-70 -3 -25 -8 -56 -10 -70 -5 -26 -7 -36 -26 -130 -33 -168 -131 -500 -175
-597 -8 -17 -14 -34 -14 -37 0 -3 -11 -30 -25 -60 -14 -30 -25 -57 -25 -60 0
-15 -123 -258 -188 -371 -108 -188 -314 -483 -407 -581 -5 -6 -33 -38 -61 -70
-68 -78 -182 -192 -287 -288 -461 -420 -1045 -733 -1648 -881 -183 -45 -165
-41 -359 -70 -221 -33 -316 -40 -570 -40 -265 0 -401 10 -616 45 -38 7 -82 14
-99 16 -126 20 -530 133 -622 175 -23 10 -46 19 -52 19 -37 0 -425 191 -578
284 -173 105 -402 265 -465 325 -9 9 -23 21 -30 26 -122 92 -373 348 -533 542
-5 7 -15 18 -21 25 -39 48 -234 324 -234 331 0 2 -30 53 -66 113 -219 364
-395 846 -468 1287 -43 253 -51 355 -51 642 0 286 10 416 50 658 12 69 47 232
60 283 8 30 22 80 30 112 9 31 23 80 32 107 10 28 18 52 18 55 3 16 34 100 77
209 268 677 732 1270 1333 1703 85 61 281 188 290 188 3 0 28 15 57 33 50 32
360 187 373 187 3 0 25 9 48 19 97 44 389 142 493 166 10 2 48 11 84 20 68 17
191 42 250 51 19 3 42 7 50 9 8 2 38 7 65 10 28 3 65 7 83 9 96 13 274 24 395
25 l47 1 0 640 0 640 -136 -3 c-75 -1 -136 -3 -137 -3z"/>
<path d="M8090 9213 c-318 -53 -586 -249 -725 -531 -33 -67 -71 -178 -80 -236
-3 -17 -8 -39 -11 -49 -3 -10 -6 -70 -6 -135 0 -319 145 -598 409 -788 78 -57
205 -115 313 -145 68 -18 111 -23 215 -23 192 -1 299 21 446 94 316 156 521
474 533 825 10 273 -89 521 -283 715 -140 139 -271 208 -506 267 -26 6 -273
11 -305 6z"/>
</g>
</svg>
