<?xml version="1.0" encoding="utf-8"?>
<!-- Generator: Adobe Illustrator 25.0.0, SVG Export Plug-In . SVG Version: 6.00 Build 0)  -->
<svg version="1.1" id="Layer_1" xmlns="http://www.w3.org/2000/svg" xmlns:xlink="http://www.w3.org/1999/xlink" x="0px" y="0px"
	 viewBox="0 0 108 108" enable-background="new 0 0 108 108" xml:space="preserve">
<g id="background">
	<rect fill="#FFFFFF" width="108" height="108"/>
</g>
<g id="foreground">
	<radialGradient id="SVGID_1_" cx="31.3947" cy="30.2334" r="69.7185" gradientUnits="userSpaceOnUse">
		<stop  offset="0" style="stop-color:#FFFFFF"/>
		<stop  offset="1" style="stop-color:#FFFFFF;stop-opacity:0"/>
	</radialGradient>
	<rect fill="url(#SVGID_1_)" fill-opacity="0.1" width="108" height="108"/>
	<g id="logo_x5F_GoogleOne_x5F_clr_2_">
		<g id="Content_3_">
			<path fill="#34A853" d="M62.76,68.77v5.45c0,3.19-2.57,5.78-5.73,5.78S51,77.41,51,74.22V59.94L62.76,68.77z"/>
			<linearGradient id="SVGID_2_" gradientUnits="userSpaceOnUse" x1="56.8805" y1="69.0427" x2="56.8805" y2="33.7662">
				<stop  offset="0" style="stop-color:#1A73E8"/>
				<stop  offset="1" style="stop-color:#4285F4"/>
			</linearGradient>
			<path fill="url(#SVGID_2_)" d="M62.76,33.78v34.99L51,59.94V46.03l9.68-7.79C62.05,37.09,62.76,35.44,62.76,33.78z"/>
			<path fill="#EA4335" d="M62.76,33.58c0,0.06,0,0.13,0,0.2c0,1.66-0.71,3.31-2.09,4.46L51,46.03V33.78c0-1.89,0.9-3.57,2.3-4.63
				c0.1-0.08,0.2-0.15,0.31-0.22c0.05-0.03,0.1-0.06,0.15-0.09c0.08-0.05,0.16-0.1,0.24-0.14c0.08-0.04,0.16-0.09,0.25-0.13
				c0.09-0.04,0.17-0.08,0.25-0.12c0.09-0.04,0.17-0.07,0.26-0.1c0.09-0.03,0.18-0.06,0.27-0.09c0.16-0.05,0.33-0.1,0.51-0.13
				c0.05-0.01,0.1-0.02,0.16-0.03c0.04-0.01,0.08-0.01,0.11-0.02c0.07-0.01,0.14-0.02,0.2-0.03c0.08-0.01,0.16-0.02,0.24-0.03
				c0.06-0.01,0.13-0.01,0.19-0.01c0.09,0,0.49-0.01,0.58-0.01h0c0.21,0,0.41,0.01,0.62,0.03c0.1,0.01,0.2,0.03,0.31,0.04
				c0.1,0.01,0.2,0.04,0.3,0.06c0.1,0.02,0.2,0.05,0.3,0.08c0.08,0.02,0.17,0.05,0.25,0.08c0.16,0.05,0.32,0.11,0.48,0.18
				c0.08,0.03,0.15,0.07,0.23,0.1c0.1,0.05,0.19,0.1,0.29,0.15c0.14,0.08,0.28,0.16,0.41,0.25c0.01,0.01,0.03,0.02,0.04,0.03
				c0.14,0.1,0.28,0.21,0.42,0.32c0.07,0.06,0.14,0.12,0.2,0.18c0,0,0,0,0.01,0.01c0.06,0.06,0.13,0.12,0.19,0.19
				s0.13,0.13,0.19,0.2c0.13,0.14,0.24,0.28,0.35,0.43c0.08,0.1,0.15,0.21,0.21,0.31c0.03,0.05,0.06,0.1,0.09,0.15
				c0.05,0.08,0.1,0.16,0.14,0.24c0.04,0.08,0.09,0.17,0.13,0.25c0.04,0.09,0.08,0.17,0.11,0.26c0.04,0.09,0.07,0.17,0.1,0.26
				c0.03,0.09,0.06,0.18,0.09,0.27c0.04,0.13,0.07,0.25,0.1,0.38c0.02,0.06,0.03,0.12,0.04,0.17c0.02,0.08,0.03,0.16,0.05,0.24
				c0.01,0.06,0.02,0.13,0.03,0.19c0.01,0.08,0.02,0.16,0.03,0.24c0.01,0.06,0.01,0.13,0.01,0.19
				C62.75,33.51,62.76,33.55,62.76,33.58z"/>
			<path fill="#FBBC04" d="M53.09,29.32c0.07-0.06,0.14-0.12,0.22-0.17C51.91,30.2,51,31.89,51,33.78v12.25l-4.89,4.05
				c-1.07,0.89-2.36,1.32-3.65,1.32c-1.66,0-3.3-0.71-4.44-2.1c-2.02-2.46-1.67-6.1,0.78-8.13L53.09,29.32z"/>
		</g>
	</g>
</g>
</svg>
