<svg xmlns="http://www.w3.org/2000/svg" width="482" height="482" style=""><rect id="backgroundrect" width="100%" height="100%" x="0" y="0" fill="none" stroke="none"/><defs><style>.cls-1{fill:#fff;}.cls-2,.cls-3{fill:#0074bf;}.cls-14,.cls-2,.cls-20,.cls-7{opacity:0.5;}.cls-10,.cls-12,.cls-17,.cls-21,.cls-3,.cls-4{opacity:0.7;}.cls-4,.cls-5,.cls-6{fill:#0082bf;}.cls-15,.cls-18,.cls-5,.cls-8{opacity:0.8;}.cls-7,.cls-8,.cls-9{fill:#008fbf;}.cls-10,.cls-11{fill:#009dbf;}.cls-12,.cls-13{fill:#00abbf;}.cls-14,.cls-15,.cls-16{fill:#00b9bf;}.cls-17,.cls-18,.cls-19{fill:#00c6bf;}.cls-20,.cls-21{fill:#00d4bf;}</style></defs><title>hcaptha-logo-white</title><g class="currentLayer" style=""><title>Layer 1</title><g id="Layer_2" data-name="Layer 2" class=""><g id="Layer_1-2" data-name="Layer 1"><rect class="cls-2" x="301.4599914550781" y="422.04998779296875" width="60.290000915527344" height="60.290000915527344" id="svg_1"/><rect class="cls-3" x="241.1699981689453" y="422.04998779296875" width="60.290000915527344" height="60.290000915527344" id="svg_2"/><rect class="cls-3" x="180.8800048828125" y="422.04998779296875" width="60.290000915527344" height="60.290000915527344" id="svg_3"/><rect class="cls-2" x="120.58999633789062" y="422.04998779296875" width="60.290000915527344" height="60.290000915527344" id="svg_4"/><rect class="cls-4" x="361.760009765625" y="361.760009765625" width="60.290000915527344" height="60.290000915527344" id="svg_5"/><rect class="cls-5" x="301.4599914550781" y="361.760009765625" width="60.290000915527344" height="60.290000915527344" id="svg_6"/><rect class="cls-6" x="241.1699981689453" y="361.760009765625" width="60.290000915527344" height="60.290000915527344" id="svg_7"/><rect class="cls-6" x="180.8800048828125" y="361.760009765625" width="60.290000915527344" height="60.290000915527344" id="svg_8"/><rect class="cls-5" x="120.58999633789062" y="361.760009765625" width="60.290000915527344" height="60.290000915527344" id="svg_9"/><rect class="cls-4" x="60.290000915527344" y="361.760009765625" width="60.290000915527344" height="60.290000915527344" id="svg_10"/><rect class="cls-7" x="422.04998779296875" y="301.4599914550781" width="60.290000915527344" height="60.290000915527344" id="svg_11"/><rect class="cls-8" x="361.760009765625" y="301.4599914550781" width="60.290000915527344" height="60.290000915527344" id="svg_12"/><rect class="cls-9" x="301.4599914550781" y="301.4599914550781" width="60.290000915527344" height="60.290000915527344" id="svg_13"/><rect class="cls-9" x="241.1699981689453" y="301.4599914550781" width="60.290000915527344" height="60.290000915527344" id="svg_14"/><rect class="cls-9" x="180.8800048828125" y="301.4599914550781" width="60.290000915527344" height="60.290000915527344" id="svg_15"/><rect class="cls-9" x="120.58999633789062" y="301.4599914550781" width="60.290000915527344" height="60.290000915527344" id="svg_16"/><rect class="cls-8" x="60.290000915527344" y="301.4599914550781" width="60.290000915527344" height="60.290000915527344" id="svg_17"/><rect class="cls-7" y="301.4599914550781" width="60.290000915527344" height="60.290000915527344" id="svg_18"/><rect class="cls-10" x="422.04998779296875" y="241.1699981689453" width="60.290000915527344" height="60.290000915527344" id="svg_19"/><rect class="cls-11" x="361.760009765625" y="241.1699981689453" width="60.290000915527344" height="60.290000915527344" id="svg_20"/><rect class="cls-11" x="301.4599914550781" y="241.1699981689453" width="60.290000915527344" height="60.290000915527344" id="svg_21"/><rect class="cls-11" x="241.1699981689453" y="241.1699981689453" width="60.290000915527344" height="60.290000915527344" id="svg_22"/><rect class="cls-11" x="180.8800048828125" y="241.1699981689453" width="60.290000915527344" height="60.290000915527344" id="svg_23"/><rect class="cls-11" x="120.58999633789062" y="241.1699981689453" width="60.290000915527344" height="60.290000915527344" id="svg_24"/><rect class="cls-11" x="60.290000915527344" y="241.1699981689453" width="60.290000915527344" height="60.290000915527344" id="svg_25"/><rect class="cls-10" y="241.1699981689453" width="60.290000915527344" height="60.290000915527344" id="svg_26"/><rect class="cls-12" x="422.04998779296875" y="180.8800048828125" width="60.290000915527344" height="60.290000915527344" id="svg_27"/><rect class="cls-13" x="361.760009765625" y="180.8800048828125" width="60.290000915527344" height="60.290000915527344" id="svg_28"/><rect class="cls-13" x="301.4599914550781" y="180.8800048828125" width="60.290000915527344" height="60.290000915527344" id="svg_29"/><rect class="cls-13" x="241.1699981689453" y="180.8800048828125" width="60.290000915527344" height="60.290000915527344" id="svg_30"/><rect class="cls-13" x="180.8800048828125" y="180.8800048828125" width="60.290000915527344" height="60.290000915527344" id="svg_31"/><rect class="cls-13" x="120.58999633789062" y="180.8800048828125" width="60.290000915527344" height="60.290000915527344" id="svg_32"/><rect class="cls-13" x="60.290000915527344" y="180.8800048828125" width="60.290000915527344" height="60.290000915527344" id="svg_33"/><rect class="cls-12" y="180.8800048828125" width="60.290000915527344" height="60.290000915527344" id="svg_34"/><rect class="cls-14" x="422.04998779296875" y="120.58999633789062" width="60.290000915527344" height="60.290000915527344" id="svg_35"/><rect class="cls-15" x="361.760009765625" y="120.58999633789062" width="60.290000915527344" height="60.290000915527344" id="svg_36"/><rect class="cls-16" x="301.4599914550781" y="120.58999633789062" width="60.290000915527344" height="60.290000915527344" id="svg_37"/><rect class="cls-16" x="241.1699981689453" y="120.58999633789062" width="60.290000915527344" height="60.290000915527344" id="svg_38"/><rect class="cls-16" x="180.8800048828125" y="120.58999633789062" width="60.290000915527344" height="60.290000915527344" id="svg_39"/><rect class="cls-16" x="120.58999633789062" y="120.58999633789062" width="60.290000915527344" height="60.290000915527344" id="svg_40"/><rect class="cls-15" x="60.290000915527344" y="120.58999633789062" width="60.290000915527344" height="60.290000915527344" id="svg_41"/><rect class="cls-14" y="120.58999633789062" width="60.290000915527344" height="60.290000915527344" id="svg_42"/><rect class="cls-17" x="361.760009765625" y="60.290000915527344" width="60.290000915527344" height="60.290000915527344" id="svg_43"/><rect class="cls-18" x="301.4599914550781" y="60.290000915527344" width="60.290000915527344" height="60.290000915527344" id="svg_44"/><rect class="cls-19" x="241.1699981689453" y="60.290000915527344" width="60.290000915527344" height="60.290000915527344" id="svg_45"/><rect class="cls-19" x="180.8800048828125" y="60.290000915527344" width="60.290000915527344" height="60.290000915527344" id="svg_46"/><rect class="cls-18" x="120.58999633789062" y="60.290000915527344" width="60.290000915527344" height="60.290000915527344" id="svg_47"/><rect class="cls-17" x="60.290000915527344" y="60.290000915527344" width="60.290000915527344" height="60.290000915527344" id="svg_48"/><rect class="cls-20" x="301.4599914550781" width="60.290000915527344" height="60.290000915527344" id="svg_49"/><rect class="cls-21" x="241.1699981689453" width="60.290000915527344" height="60.290000915527344" id="svg_50"/><rect class="cls-21" x="180.8800048828125" width="60.290000915527344" height="60.290000915527344" id="svg_51"/><rect class="cls-20" x="120.58999633789062" width="60.290000915527344" height="60.290000915527344" id="svg_52"/><path class="cls-1" d="M158.75,222.15l16.8-37.6c6.12-9.64,5.31-21.45-1.39-28.15a17.19,17.19,0,0,0-2.95-2.36,18.56,18.56,0,0,0-15.51-1.81,25.33,25.33,0,0,0-14,10.83s-23,53.66-31.56,77.78S105,309.19,138,342.26c35,35,85.68,43,118,18.74a20.27,20.27,0,0,0,3.79-2.47l99.6-83.17c4.84-4,12-12.24,5.57-21.64-6.27-9.17-18.15-2.93-23,.17l-57.32,41.68a2.58,2.58,0,0,1-3.7-.43c-1.46-1.79-1.72-6.53.57-8.41l87.87-74.57c7.59-6.84,8.65-16.78,2.5-23.59-6-6.67-15.53-6.47-23.19.43l-79.11,61.85a3.51,3.51,0,0,1-5.06-.66c-1.56-1.75-2.16-4.74-.4-6.49l89.6-86.95a17.52,17.52,0,0,0,.88-24.74,16.73,16.73,0,0,0-12.17-5.21,17.84,17.84,0,0,0-12.58,5l-91.55,86c-2.19,2.19-6.48,0-7-2.56a2.79,2.79,0,0,1,.78-2.56l70.08-79.79a17.27,17.27,0,1,0-24.37-24.45L171.52,225.93c-3.81,3.81-9.42,4-12.09,1.79A4,4,0,0,1,158.75,222.15Z" id="svg_53"/></g></g></g></svg>