<svg viewBox="0 0 32 36" role="img" xmlns="http://www.w3.org/2000/svg"><title id="ShoppingBagOnlyLogoTitle">Shopify</title><path fill="#95BF47" d="M27.1851 6.83166C27.1598 6.65519 27.0079 6.55435 26.8813 6.55435C26.7548 6.55435 24.2489 6.50393 24.2489 6.50393C24.2489 6.50393 22.148 4.48717 21.9455 4.26028C21.743 4.0586 21.338 4.10902 21.1861 4.15944C21.1861 4.15944 20.7812 4.28549 20.123 4.48717C20.0218 4.13423 19.8446 3.70567 19.6168 3.2519C18.8828 1.84016 17.769 1.08387 16.4528 1.08387C16.3516 1.08387 16.2756 1.08387 16.1744 1.10908C16.1237 1.05866 16.0984 1.00824 16.0478 0.983034C15.4656 0.378004 14.7316 0.0754894 13.8457 0.100699C12.1498 0.151118 10.4539 1.38639 9.0617 3.55441C8.09984 5.0922 7.36579 7.00813 7.13798 8.49549C5.18896 9.10052 3.82211 9.52908 3.77149 9.52908C2.78432 9.8316 2.75901 9.85681 2.63245 10.7896C2.58182 11.4954 0 31.3858 0 31.3858L21.6671 35.1168L31.0578 32.7975C31.0325 32.7975 27.2104 7.00813 27.1851 6.83166ZM19.0346 4.8401C18.5284 4.99136 17.9715 5.16783 17.364 5.3695C17.364 4.51238 17.2375 3.30232 16.8578 2.29393C18.1487 2.49561 18.7815 3.95777 19.0346 4.8401ZM16.225 5.69723C15.086 6.05016 13.8457 6.42831 12.6054 6.80645C12.9597 5.47034 13.6179 4.15944 14.4278 3.27711C14.7316 2.94938 15.1619 2.59645 15.6428 2.39477C16.1491 3.37794 16.2503 4.76447 16.225 5.69723ZM13.8963 1.23513C14.3013 1.23513 14.6303 1.31076 14.9088 1.51244C14.4532 1.73932 13.9975 2.09226 13.5925 2.54603C12.5041 3.70567 11.6688 5.49555 11.3398 7.23501C10.302 7.56274 9.2895 7.86525 8.37827 8.14256C8.98576 5.39471 11.2892 1.31076 13.8963 1.23513Z"></path><path fill="#5E8E3E" d="M26.8814 6.55452C26.7548 6.55452 24.2489 6.5041 24.2489 6.5041C24.2489 6.5041 22.148 4.48733 21.9455 4.26045C21.8696 4.18482 21.7684 4.1344 21.6671 4.1344V35.117L31.0579 32.7977C31.0579 32.7977 27.2358 7.00829 27.2104 6.83183C27.1598 6.65536 27.0079 6.55452 26.8814 6.55452Z"></path><path fill="white" d="M16.4528 11.3696L15.3644 15.4283C15.3644 15.4283 14.1494 14.8737 12.7066 14.9745C10.5804 15.1006 10.5804 16.4367 10.5804 16.7644C10.707 18.5795 15.4909 18.9828 15.7694 23.2433C15.9719 26.5961 13.9975 28.8902 11.112 29.0667C7.66952 29.2432 5.77112 27.2264 5.77112 27.2264L6.50517 24.1256C6.50517 24.1256 8.42888 25.5625 9.9476 25.4617C10.9348 25.4113 11.3144 24.5794 11.2638 24.0248C11.112 21.6551 7.2139 21.8063 6.96078 17.8988C6.75829 14.6216 8.90981 11.3191 13.6685 11.0166C15.5162 10.8906 16.4528 11.3696 16.4528 11.3696Z"></path></svg>